<svg id="Layer_1" data-name="Layer 1" xmlns="http://www.w3.org/2000/svg" viewBox="0 0 976.42 193.05"><defs><style>.cls-1{fill:#3a3a3a;}.cls-2{fill:#a8322d;}</style></defs><path class="cls-1" d="M3.53,151.52c0-16,.68-22.88,3.44-31.82C13.16,100.61,30.18,91,51,91c21.5,0,35.94,10,42.48,24.94a2,2,0,0,1-.86,2.75l-22.36,9.46a1.9,1.9,0,0,1-2.58-.69c-4-6.36-8.6-9.46-16.68-9.46-7.92,0-13.08,3.78-15.14,10.32-1.38,4.13-1.72,9.29-1.72,23.22s.52,19.26,1.72,23.22c2.24,6.54,7.57,10.32,16,10.32,7.56,0,13.58-3.27,15.48-9.29a23.85,23.85,0,0,0,1-7.57.92.92,0,0,0-1-1H54.61a1.63,1.63,0,0,1-1.72-1.72V146a1.62,1.62,0,0,1,1.72-1.72H96.4A1.62,1.62,0,0,1,98.12,146V155c0,11.18-.68,19.95-3.09,27.18-6.19,19.43-22.71,29.92-44,29.92-20.82,0-37.84-9.63-44-28.72C4.21,174.4,3.53,167.52,3.53,151.52Z" transform="translate(-3.53 -55)"/><path class="cls-1" d="M114.29,94.76A1.63,1.63,0,0,1,116,93h26.83a1.62,1.62,0,0,1,1.72,1.72v41.45a.91.91,0,0,0,1,1h31.82a.91.91,0,0,0,1-1V94.76A1.62,1.62,0,0,1,180.17,93H207a1.63,1.63,0,0,1,1.72,1.72V208.28A1.63,1.63,0,0,1,207,210H180.17a1.62,1.62,0,0,1-1.72-1.72V165.11a.91.91,0,0,0-1-1H145.6a.91.91,0,0,0-1,1v43.17a1.62,1.62,0,0,1-1.72,1.72H116a1.63,1.63,0,0,1-1.72-1.72Z" transform="translate(-3.53 -55)"/><path class="cls-1" d="M256.53,210a1.63,1.63,0,0,1-1.72-1.72V164.76L219.38,94.93A1.33,1.33,0,0,1,220.76,93h27a2.94,2.94,0,0,1,2.75,1.72l19.61,39.9h.52l19.26-39.9A2.8,2.8,0,0,1,292.65,93h26.49c1.38,0,1.72.86,1.38,1.89l-35.43,69.83v43.52a1.63,1.63,0,0,1-1.72,1.72Z" transform="translate(-3.53 -55)"/><path class="cls-1" d="M332.9,210a1.63,1.63,0,0,1-1.72-1.72V94.76A1.63,1.63,0,0,1,332.9,93h46.78C408.24,93,423,109.21,423,131.91c0,22.36-15,39.05-43.35,39.05h-17.2a.91.91,0,0,0-1,1v36.29a1.62,1.62,0,0,1-1.72,1.72Zm59.86-78.09c0-8.08-5.34-13.24-14.8-13.24H362.48a.91.91,0,0,0-1,1v24.6a.92.92,0,0,0,1,1H378C387.42,145.33,392.76,140,392.76,131.91Z" transform="translate(-3.53 -55)"/><path class="cls-1" d="M436.45,94.76A1.62,1.62,0,0,1,438.17,93H514.7a1.62,1.62,0,0,1,1.72,1.72V117a1.62,1.62,0,0,1-1.72,1.72h-47a.91.91,0,0,0-1,1v17.72a.91.91,0,0,0,1,1h38.53a1.63,1.63,0,0,1,1.72,1.72v21.67a1.63,1.63,0,0,1-1.72,1.72H467.75a.91.91,0,0,0-1,1v18.75a.91.91,0,0,0,1,1h47a1.62,1.62,0,0,1,1.72,1.72v22.19A1.62,1.62,0,0,1,514.7,210H438.17a1.62,1.62,0,0,1-1.72-1.72Z" transform="translate(-3.53 -55)"/><path class="cls-1" d="M686,94.76A1.62,1.62,0,0,1,687.72,93H713a3,3,0,0,1,2.92,1.72L751.18,161h.69V94.76A1.63,1.63,0,0,1,753.59,93h24.08a1.63,1.63,0,0,1,1.72,1.72V208.28a1.63,1.63,0,0,1-1.72,1.72H752.39a3,3,0,0,1-2.93-1.72l-34.91-66.05h-1v66.05A1.63,1.63,0,0,1,711.8,210H687.72a1.62,1.62,0,0,1-1.72-1.72Z" transform="translate(-3.53 -55)"/><path class="cls-1" d="M798.31,94.76A1.63,1.63,0,0,1,800,93h76.54a1.63,1.63,0,0,1,1.72,1.72V117a1.63,1.63,0,0,1-1.72,1.72h-47a.91.91,0,0,0-1,1v17.72a.92.92,0,0,0,1,1h38.52a1.63,1.63,0,0,1,1.72,1.72v21.67a1.63,1.63,0,0,1-1.72,1.72H829.62a.91.91,0,0,0-1,1v18.75a.91.91,0,0,0,1,1h47a1.63,1.63,0,0,1,1.72,1.72v22.19a1.63,1.63,0,0,1-1.72,1.72H800a1.63,1.63,0,0,1-1.72-1.72Z" transform="translate(-3.53 -55)"/><path class="cls-1" d="M919.91,210h-.51c-.35,0-.52-.17-.86-.52a.89.89,0,0,1-.35-.69V120.9a1.09,1.09,0,0,0-.86-1H887.92a.92.92,0,0,1-.69-.34l-.17-.17s0-.18-.17-.18a2.18,2.18,0,0,1-.17-1V94.76a1.7,1.7,0,0,1,1.2-1.72h90.3a1.56,1.56,0,0,1,1.21.52.59.59,0,0,1,.17.34,1.33,1.33,0,0,1,.34.86v23.39a2,2,0,0,1-.51,1.38,1.35,1.35,0,0,1-.87.34H949.5c-.35,0-.52,0-.69.17-.17,0-.17.18-.34.35v88.4a1.74,1.74,0,0,1-.86,1,1.32,1.32,0,0,1-.86.17Z" transform="translate(-3.53 -55)"/><path class="cls-2" d="M652.25,215.84h-.08L625.5,161.61a16.16,16.16,0,0,0,3.42-7.37c13.73-5.06,23.14-15.14,26.85-29a16.1,16.1,0,0,0-.67-30.51c-6.18-19.24-23.87-30.62-49.31-30.62H567.94a16.09,16.09,0,1,0,.24,13.5h37.36c18.27,0,30.44,7,35.33,19.48a16.07,16.07,0,0,0,.59,26.46A27.82,27.82,0,0,1,625.41,141a16.08,16.08,0,0,0-26.92,3.61H568.06a16.13,16.13,0,0,0-7.52-7.69V106.14l6.89,6.9V101.17l-14-14-14,14V113l6.81-6.81V137a16.08,16.08,0,0,0,0,28.8v51.79a16.1,16.1,0,1,0,14.25,0V165.79a16.18,16.18,0,0,0,7.52-7.69h30.43a16.08,16.08,0,0,0,14.32,9.33l26.59,54.84a16.09,16.09,0,1,0,12.85-6.43ZM553.46,99.05l.49.5h-1Z" transform="translate(-3.53 -55)"/></svg>